<svg width="16" height="16" viewBox="0 0 16 16" fill="none" xmlns="http://www.w3.org/2000/svg">
<path d="M7.99968 7.33331C7.82287 7.33331 7.6533 7.40355 7.52827 7.52858C7.40325 7.6536 7.33301 7.82317 7.33301 7.99998V10.6666C7.33301 10.8435 7.40325 11.013 7.52827 11.1381C7.6533 11.2631 7.82287 11.3333 7.99968 11.3333C8.17649 11.3333 8.34606 11.2631 8.47108 11.1381C8.59611 11.013 8.66634 10.8435 8.66634 10.6666V7.99998C8.66634 7.82317 8.59611 7.6536 8.47108 7.52858C8.34606 7.40355 8.17649 7.33331 7.99968 7.33331ZM8.25301 4.71998C8.0907 4.6533 7.90865 4.6533 7.74634 4.71998C7.66451 4.75171 7.58975 4.79929 7.52634 4.85998C7.46746 4.92478 7.4201 4.99919 7.38634 5.07998C7.34902 5.1591 7.33076 5.24586 7.33301 5.33331C7.3325 5.42105 7.34932 5.50803 7.3825 5.58925C7.41567 5.67048 7.46456 5.74435 7.52634 5.80665C7.59114 5.86553 7.66555 5.91289 7.74634 5.94665C7.84734 5.98814 7.95699 6.00419 8.06564 5.99339C8.1743 5.98259 8.27863 5.94526 8.36949 5.88469C8.46034 5.82412 8.53492 5.74217 8.58668 5.64603C8.63845 5.54989 8.6658 5.4425 8.66634 5.33331C8.66389 5.1568 8.59483 4.98774 8.47301 4.85998C8.40961 4.79929 8.33485 4.75171 8.25301 4.71998ZM7.99968 1.33331C6.68114 1.33331 5.3922 1.72431 4.29588 2.45685C3.19955 3.18939 2.34506 4.23058 1.84048 5.44876C1.3359 6.66693 1.20387 8.00738 1.46111 9.30058C1.71834 10.5938 2.35328 11.7817 3.28563 12.714C4.21798 13.6464 5.40587 14.2813 6.69908 14.5385C7.99228 14.7958 9.33273 14.6638 10.5509 14.1592C11.7691 13.6546 12.8103 12.8001 13.5428 11.7038C14.2753 10.6075 14.6663 9.31852 14.6663 7.99998C14.6663 7.1245 14.4939 6.25759 14.1589 5.44876C13.8238 4.63992 13.3328 3.90499 12.7137 3.28593C12.0947 2.66688 11.3597 2.17581 10.5509 1.84078C9.74206 1.50575 8.87516 1.33331 7.99968 1.33331ZM7.99968 13.3333C6.94484 13.3333 5.9137 13.0205 5.03664 12.4345C4.15957 11.8484 3.47599 11.0155 3.07232 10.041C2.66865 9.06642 2.56303 7.99406 2.76882 6.9595C2.97461 5.92493 3.48256 4.97462 4.22844 4.22874C4.97432 3.48286 5.92463 2.97491 6.9592 2.76912C7.99376 2.56334 9.06612 2.66895 10.0407 3.07262C11.0152 3.47629 11.8481 4.15988 12.4342 5.03694C13.0202 5.914 13.333 6.94515 13.333 7.99998C13.333 9.41447 12.7711 10.771 11.7709 11.7712C10.7707 12.7714 9.41417 13.3333 7.99968 13.3333Z" fill="#477DB3"/>
</svg>
