<svg width="16" height="16" viewBox="0 0 16 16" fill="none" xmlns="http://www.w3.org/2000/svg">
<path d="M12.473 4.8067C12.411 4.74421 12.3373 4.69461 12.256 4.66077C12.1748 4.62692 12.0876 4.6095 11.9996 4.6095C11.9116 4.6095 11.8245 4.62692 11.7433 4.66077C11.662 4.69461 11.5883 4.74421 11.5263 4.8067L6.55964 9.78003L4.47297 7.6867C4.40863 7.62454 4.33267 7.57566 4.24943 7.54286C4.16619 7.51006 4.07731 7.49397 3.98786 7.49552C3.8984 7.49706 3.81013 7.51622 3.72808 7.55188C3.64602 7.58754 3.5718 7.63902 3.50964 7.70336C3.44748 7.76771 3.39861 7.84367 3.3658 7.92691C3.333 8.01014 3.31691 8.09903 3.31846 8.18848C3.32001 8.27793 3.33916 8.36621 3.37482 8.44826C3.41049 8.53031 3.46196 8.60454 3.52631 8.6667L6.08631 11.2267C6.14828 11.2892 6.22202 11.3388 6.30326 11.3726C6.3845 11.4065 6.47163 11.4239 6.55964 11.4239C6.64765 11.4239 6.73479 11.4065 6.81603 11.3726C6.89726 11.3388 6.971 11.2892 7.03297 11.2267L12.473 5.7867C12.5406 5.72427 12.5946 5.6485 12.6316 5.56417C12.6685 5.47983 12.6876 5.38876 12.6876 5.2967C12.6876 5.20463 12.6685 5.11356 12.6316 5.02923C12.5946 4.94489 12.5406 4.86912 12.473 4.8067Z" fill="#66D49A"/>
</svg>
